<svg id="visual" viewBox="0 0 900 600" width="900" height="600" xmlns="http://www.w3.org/2000/svg" xmlns:xlink="http://www.w3.org/1999/xlink" version="1.1"><g stroke-width="1" stroke-linejoin="bevel"><path d="M439 248L370 274L386 312Z" fill="#246688" stroke="#246688"></path><path d="M346 333L399 347L386 312Z" fill="#297ea6" stroke="#297ea6"></path><path d="M386 312L478 331L439 248Z" fill="#205a7a" stroke="#205a7a"></path><path d="M399 347L418 349L386 312Z" fill="#15384f" stroke="#15384f"></path><path d="M418 349L478 331L386 312Z" fill="#205a7a" stroke="#205a7a"></path><path d="M370 274L346 333L386 312Z" fill="#205a7a" stroke="#205a7a"></path><path d="M514 383L497 333L478 331Z" fill="#15384f" stroke="#15384f"></path><path d="M478 331L532 287L439 248Z" fill="#246688" stroke="#246688"></path><path d="M451 155L437 166L439 248Z" fill="#00101c" stroke="#00101c"></path><path d="M439 248L402 159L370 274Z" fill="#15384f" stroke="#15384f"></path><path d="M437 166L402 159L439 248Z" fill="#15384f" stroke="#15384f"></path><path d="M370 274L302 208L346 333Z" fill="#277297" stroke="#277297"></path><path d="M497 333L532 287L478 331Z" fill="#277297" stroke="#277297"></path><path d="M437 166L411 151L402 159Z" fill="#297ea6" stroke="#297ea6"></path><path d="M532 287L451 155L439 248Z" fill="#112e42" stroke="#112e42"></path><path d="M437 166L451 155L411 151Z" fill="#277297" stroke="#277297"></path><path d="M378 118L302 208L402 159Z" fill="#1d4e6b" stroke="#1d4e6b"></path><path d="M402 159L302 208L370 274Z" fill="#0c2435" stroke="#0c2435"></path><path d="M201 297L305 370L346 333Z" fill="#112e42" stroke="#112e42"></path><path d="M346 333L370 430L399 347Z" fill="#277297" stroke="#277297"></path><path d="M399 347L370 430L418 349Z" fill="#00101c" stroke="#00101c"></path><path d="M418 349L514 383L478 331Z" fill="#297ea6" stroke="#297ea6"></path><path d="M497 333L577 334L532 287Z" fill="#1d4e6b" stroke="#1d4e6b"></path><path d="M510 406L514 383L418 349Z" fill="#205a7a" stroke="#205a7a"></path><path d="M305 370L370 430L346 333Z" fill="#0c2435" stroke="#0c2435"></path><path d="M438 472L510 406L418 349Z" fill="#277297" stroke="#277297"></path><path d="M514 383L577 334L497 333Z" fill="#112e42" stroke="#112e42"></path><path d="M448 69L378 118L411 151Z" fill="#297ea6" stroke="#297ea6"></path><path d="M411 151L378 118L402 159Z" fill="#112e42" stroke="#112e42"></path><path d="M308 446L364 439L370 430Z" fill="#1d4e6b" stroke="#1d4e6b"></path><path d="M370 430L438 472L418 349Z" fill="#205a7a" stroke="#205a7a"></path><path d="M581 146L487 123L451 155Z" fill="#1d4e6b" stroke="#1d4e6b"></path><path d="M451 155L448 69L411 151Z" fill="#1d4e6b" stroke="#1d4e6b"></path><path d="M597 466L577 334L514 383Z" fill="#00101c" stroke="#00101c"></path><path d="M532 287L581 146L451 155Z" fill="#15384f" stroke="#15384f"></path><path d="M238 186L231 220L302 208Z" fill="#081a28" stroke="#081a28"></path><path d="M302 208L201 297L346 333Z" fill="#246688" stroke="#246688"></path><path d="M364 439L438 472L370 430Z" fill="#00101c" stroke="#00101c"></path><path d="M290 465L308 446L222 453Z" fill="#1d4e6b" stroke="#1d4e6b"></path><path d="M305 370L308 446L370 430Z" fill="#15384f" stroke="#15384f"></path><path d="M364 439L443 503L438 472Z" fill="#00101c" stroke="#00101c"></path><path d="M254 140L238 186L302 208Z" fill="#277297" stroke="#277297"></path><path d="M378 118L254 140L302 208Z" fill="#246688" stroke="#246688"></path><path d="M169 278L201 297L231 220Z" fill="#297ea6" stroke="#297ea6"></path><path d="M231 220L201 297L302 208Z" fill="#00101c" stroke="#00101c"></path><path d="M487 123L448 69L451 155Z" fill="#277297" stroke="#277297"></path><path d="M378 118L356 65L254 140Z" fill="#0c2435" stroke="#0c2435"></path><path d="M638 251L615 210L532 287Z" fill="#15384f" stroke="#15384f"></path><path d="M544 0L457 0L448 69Z" fill="#00101c" stroke="#00101c"></path><path d="M615 210L581 146L532 287Z" fill="#081a28" stroke="#081a28"></path><path d="M448 69L356 65L378 118Z" fill="#246688" stroke="#246688"></path><path d="M222 453L308 446L305 370Z" fill="#246688" stroke="#246688"></path><path d="M308 446L290 465L364 439Z" fill="#277297" stroke="#277297"></path><path d="M303 600L443 503L364 439Z" fill="#0c2435" stroke="#0c2435"></path><path d="M438 472L515 506L510 406Z" fill="#205a7a" stroke="#205a7a"></path><path d="M510 406L597 466L514 383Z" fill="#15384f" stroke="#15384f"></path><path d="M577 334L638 251L532 287Z" fill="#1d4e6b" stroke="#1d4e6b"></path><path d="M615 210L680 174L581 146Z" fill="#15384f" stroke="#15384f"></path><path d="M169 278L231 220L96 155Z" fill="#00101c" stroke="#00101c"></path><path d="M150 282L169 278L96 155Z" fill="#0c2435" stroke="#0c2435"></path><path d="M163 395L222 453L305 370Z" fill="#297ea6" stroke="#297ea6"></path><path d="M443 503L515 506L438 472Z" fill="#0c2435" stroke="#0c2435"></path><path d="M717 217L658 231L771 333Z" fill="#297ea6" stroke="#297ea6"></path><path d="M762 363L638 251L577 334Z" fill="#205a7a" stroke="#205a7a"></path><path d="M638 251L658 231L615 210Z" fill="#1d4e6b" stroke="#1d4e6b"></path><path d="M159 360L305 370L201 297Z" fill="#19435d" stroke="#19435d"></path><path d="M303 600L449 600L443 503Z" fill="#0c2435" stroke="#0c2435"></path><path d="M96 155L231 220L238 186Z" fill="#0c2435" stroke="#0c2435"></path><path d="M169 278L150 282L201 297Z" fill="#112e42" stroke="#112e42"></path><path d="M515 506L597 466L510 406Z" fill="#205a7a" stroke="#205a7a"></path><path d="M150 282L159 360L201 297Z" fill="#00101c" stroke="#00101c"></path><path d="M356 65L266 51L254 140Z" fill="#205a7a" stroke="#205a7a"></path><path d="M254 140L96 155L238 186Z" fill="#15384f" stroke="#15384f"></path><path d="M337 0L266 51L356 65Z" fill="#0c2435" stroke="#0c2435"></path><path d="M151 469L163 395L76 385Z" fill="#205a7a" stroke="#205a7a"></path><path d="M159 360L163 395L305 370Z" fill="#0c2435" stroke="#0c2435"></path><path d="M544 0L448 69L487 123Z" fill="#112e42" stroke="#112e42"></path><path d="M448 69L362 0L356 65Z" fill="#00101c" stroke="#00101c"></path><path d="M544 0L487 123L581 146Z" fill="#1d4e6b" stroke="#1d4e6b"></path><path d="M457 0L362 0L448 69Z" fill="#277297" stroke="#277297"></path><path d="M701 180L680 174L658 231Z" fill="#1d4e6b" stroke="#1d4e6b"></path><path d="M658 231L680 174L615 210Z" fill="#19435d" stroke="#19435d"></path><path d="M362 0L337 0L356 65Z" fill="#15384f" stroke="#15384f"></path><path d="M717 217L701 180L658 231Z" fill="#081a28" stroke="#081a28"></path><path d="M581 0L544 0L581 146Z" fill="#1d4e6b" stroke="#1d4e6b"></path><path d="M669 108L581 146L680 174Z" fill="#0c2435" stroke="#0c2435"></path><path d="M701 180L669 108L680 174Z" fill="#277297" stroke="#277297"></path><path d="M719 600L677 439L597 466Z" fill="#246688" stroke="#246688"></path><path d="M597 466L677 439L577 334Z" fill="#00101c" stroke="#00101c"></path><path d="M771 333L658 231L638 251Z" fill="#112e42" stroke="#112e42"></path><path d="M163 395L151 469L222 453Z" fill="#205a7a" stroke="#205a7a"></path><path d="M295 600L303 600L290 465Z" fill="#081a28" stroke="#081a28"></path><path d="M76 385L163 395L159 360Z" fill="#00101c" stroke="#00101c"></path><path d="M443 503L463 601L515 506Z" fill="#0c2435" stroke="#0c2435"></path><path d="M515 506L590 600L597 466Z" fill="#205a7a" stroke="#205a7a"></path><path d="M303 600L364 439L290 465Z" fill="#1d4e6b" stroke="#1d4e6b"></path><path d="M449 600L463 601L443 503Z" fill="#00101c" stroke="#00101c"></path><path d="M669 108L581 0L581 146Z" fill="#205a7a" stroke="#205a7a"></path><path d="M701 180L683 90L669 108Z" fill="#00101c" stroke="#00101c"></path><path d="M669 108L683 90L581 0Z" fill="#19435d" stroke="#19435d"></path><path d="M779 127L683 90L701 180Z" fill="#0c2435" stroke="#0c2435"></path><path d="M683 90L589 -7L581 0Z" fill="#297ea6" stroke="#297ea6"></path><path d="M581 0L589 -7L544 0Z" fill="#0c2435" stroke="#0c2435"></path><path d="M544 0L589 -7L457 0Z" fill="#081a28" stroke="#081a28"></path><path d="M457 0L589 -7L362 0Z" fill="#277297" stroke="#277297"></path><path d="M362 0L589 -7L337 0Z" fill="#112e42" stroke="#112e42"></path><path d="M295 600L290 465L230 590Z" fill="#1d4e6b" stroke="#1d4e6b"></path><path d="M449 600L303 600L463 601Z" fill="#00101c" stroke="#00101c"></path><path d="M170 0L254 140L266 51Z" fill="#081a28" stroke="#081a28"></path><path d="M170 0L96 155L254 140Z" fill="#1d4e6b" stroke="#1d4e6b"></path><path d="M150 282L76 385L159 360Z" fill="#1d4e6b" stroke="#1d4e6b"></path><path d="M230 590L290 465L222 453Z" fill="#246688" stroke="#246688"></path><path d="M303 600L295 600L463 601Z" fill="#112e42" stroke="#112e42"></path><path d="M0 360L76 385L150 282Z" fill="#1d4e6b" stroke="#1d4e6b"></path><path d="M190 600L230 590L151 469Z" fill="#15384f" stroke="#15384f"></path><path d="M151 469L230 590L222 453Z" fill="#15384f" stroke="#15384f"></path><path d="M677 439L762 363L577 334Z" fill="#246688" stroke="#246688"></path><path d="M717 217L778 211L701 180Z" fill="#277297" stroke="#277297"></path><path d="M762 363L771 333L638 251Z" fill="#00101c" stroke="#00101c"></path><path d="M463 601L590 600L515 506Z" fill="#246688" stroke="#246688"></path><path d="M677 439L761 412L762 363Z" fill="#277297" stroke="#277297"></path><path d="M589 -7L170 0L337 0Z" fill="#19435d" stroke="#19435d"></path><path d="M337 0L170 0L266 51Z" fill="#19435d" stroke="#19435d"></path><path d="M771 333L778 211L717 217Z" fill="#081a28" stroke="#081a28"></path><path d="M463 601L602 600L590 600Z" fill="#00101c" stroke="#00101c"></path><path d="M590 600L602 600L597 466Z" fill="#00101c" stroke="#00101c"></path><path d="M772 490L761 412L677 439Z" fill="#277297" stroke="#277297"></path><path d="M762 363L823 345L771 333Z" fill="#205a7a" stroke="#205a7a"></path><path d="M164 600L190 600L151 469Z" fill="#246688" stroke="#246688"></path><path d="M230 590L190 600L295 600Z" fill="#19435d" stroke="#19435d"></path><path d="M295 600L190 600L463 601Z" fill="#0c2435" stroke="#0c2435"></path><path d="M778 211L779 127L701 180Z" fill="#1d4e6b" stroke="#1d4e6b"></path><path d="M683 90L708 0L589 -7Z" fill="#297ea6" stroke="#297ea6"></path><path d="M150 600L164 600L129 582Z" fill="#277297" stroke="#277297"></path><path d="M190 600L164 600L463 601Z" fill="#205a7a" stroke="#205a7a"></path><path d="M771 333L813 214L778 211Z" fill="#19435d" stroke="#19435d"></path><path d="M778 211L813 214L779 127Z" fill="#112e42" stroke="#112e42"></path><path d="M823 345L813 214L771 333Z" fill="#277297" stroke="#277297"></path><path d="M779 127L708 0L683 90Z" fill="#205a7a" stroke="#205a7a"></path><path d="M129 582L164 600L151 469Z" fill="#246688" stroke="#246688"></path><path d="M164 600L150 600L463 601Z" fill="#081a28" stroke="#081a28"></path><path d="M0 552L129 582L151 469Z" fill="#1d4e6b" stroke="#1d4e6b"></path><path d="M761 412L823 345L762 363Z" fill="#277297" stroke="#277297"></path><path d="M833 456L823 345L761 412Z" fill="#081a28" stroke="#081a28"></path><path d="M0 187L0 209L96 155Z" fill="#205a7a" stroke="#205a7a"></path><path d="M96 155L0 209L150 282Z" fill="#246688" stroke="#246688"></path><path d="M76 385L1 432L151 469Z" fill="#1d4e6b" stroke="#1d4e6b"></path><path d="M719 600L772 490L677 439Z" fill="#1d4e6b" stroke="#1d4e6b"></path><path d="M0 209L0 360L150 282Z" fill="#205a7a" stroke="#205a7a"></path><path d="M772 490L785 469L761 412Z" fill="#297ea6" stroke="#297ea6"></path><path d="M0 360L0 361L76 385Z" fill="#205a7a" stroke="#205a7a"></path><path d="M170 0L64 42L96 155Z" fill="#0c2435" stroke="#0c2435"></path><path d="M0 90L0 187L96 155Z" fill="#00101c" stroke="#00101c"></path><path d="M74 0L54 45L64 42Z" fill="#112e42" stroke="#112e42"></path><path d="M64 42L54 45L96 155Z" fill="#112e42" stroke="#112e42"></path><path d="M-9 98L-10 201L0 187Z" fill="#19435d" stroke="#19435d"></path><path d="M0 187L-10 201L0 209Z" fill="#246688" stroke="#246688"></path><path d="M0 209L-10 201L0 360Z" fill="#297ea6" stroke="#297ea6"></path><path d="M0 360L-10 201L0 361Z" fill="#297ea6" stroke="#297ea6"></path><path d="M-10 201L0 416L0 361Z" fill="#246688" stroke="#246688"></path><path d="M0 361L0 416L76 385Z" fill="#246688" stroke="#246688"></path><path d="M170 0L74 0L64 42Z" fill="#246688" stroke="#246688"></path><path d="M589 -7L74 0L170 0Z" fill="#112e42" stroke="#112e42"></path><path d="M0 416L1 432L76 385Z" fill="#081a28" stroke="#081a28"></path><path d="M602 600L719 600L597 466Z" fill="#19435d" stroke="#19435d"></path><path d="M772 490L833 456L785 469Z" fill="#205a7a" stroke="#205a7a"></path><path d="M463 601L719 600L602 600Z" fill="#081a28" stroke="#081a28"></path><path d="M900 163L820 87L779 127Z" fill="#00101c" stroke="#00101c"></path><path d="M779 127L820 87L708 0Z" fill="#277297" stroke="#277297"></path><path d="M900 163L779 127L813 214Z" fill="#00101c" stroke="#00101c"></path><path d="M54 45L0 90L96 155Z" fill="#246688" stroke="#246688"></path><path d="M14 0L0 90L54 45Z" fill="#112e42" stroke="#112e42"></path><path d="M817 600L833 456L772 490Z" fill="#205a7a" stroke="#205a7a"></path><path d="M785 469L833 456L761 412Z" fill="#112e42" stroke="#112e42"></path><path d="M823 345L900 272L813 214Z" fill="#297ea6" stroke="#297ea6"></path><path d="M0 0L-9 98L0 90Z" fill="#0c2435" stroke="#0c2435"></path><path d="M0 90L-9 98L0 187Z" fill="#246688" stroke="#246688"></path><path d="M833 456L872 368L823 345Z" fill="#297ea6" stroke="#297ea6"></path><path d="M719 600L762 600L772 490Z" fill="#00101c" stroke="#00101c"></path><path d="M463 601L762 600L719 600Z" fill="#297ea6" stroke="#297ea6"></path><path d="M870 -14L804 0L900 39Z" fill="#0c2435" stroke="#0c2435"></path><path d="M820 87L804 0L708 0Z" fill="#205a7a" stroke="#205a7a"></path><path d="M708 0L870 -14L589 -7Z" fill="#00101c" stroke="#00101c"></path><path d="M589 -7L14 0L74 0Z" fill="#1d4e6b" stroke="#1d4e6b"></path><path d="M74 0L14 0L54 45Z" fill="#297ea6" stroke="#297ea6"></path><path d="M872 368L900 272L823 345Z" fill="#205a7a" stroke="#205a7a"></path><path d="M900 272L900 263L813 214Z" fill="#19435d" stroke="#19435d"></path><path d="M1 432L0 552L151 469Z" fill="#19435d" stroke="#19435d"></path><path d="M129 582L0 600L150 600Z" fill="#246688" stroke="#246688"></path><path d="M0 416L0 552L1 432Z" fill="#1d4e6b" stroke="#1d4e6b"></path><path d="M-1 591L0 552L0 416Z" fill="#205a7a" stroke="#205a7a"></path><path d="M589 -7L0 0L14 0Z" fill="#246688" stroke="#246688"></path><path d="M14 0L0 0L0 90Z" fill="#081a28" stroke="#081a28"></path><path d="M872 368L900 381L900 272Z" fill="#246688" stroke="#246688"></path><path d="M893 433L900 381L872 368Z" fill="#0c2435" stroke="#0c2435"></path><path d="M893 433L872 368L833 456Z" fill="#297ea6" stroke="#297ea6"></path><path d="M900 263L900 163L813 214Z" fill="#112e42" stroke="#112e42"></path><path d="M900 434L893 433L900 441Z" fill="#00101c" stroke="#00101c"></path><path d="M900 441L893 433L833 456Z" fill="#277297" stroke="#277297"></path><path d="M893 433L900 434L900 381Z" fill="#297ea6" stroke="#297ea6"></path><path d="M900 600L900 441L833 456Z" fill="#112e42" stroke="#112e42"></path><path d="M-10 201L-1 591L0 416Z" fill="#19435d" stroke="#19435d"></path><path d="M0 552L-1 591L129 582Z" fill="#0c2435" stroke="#0c2435"></path><path d="M463 601L817 600L762 600Z" fill="#0c2435" stroke="#0c2435"></path><path d="M762 600L817 600L772 490Z" fill="#205a7a" stroke="#205a7a"></path><path d="M-1 591L0 600L129 582Z" fill="#277297" stroke="#277297"></path><path d="M150 600L0 600L463 601Z" fill="#081a28" stroke="#081a28"></path><path d="M900 39L804 0L820 87Z" fill="#205a7a" stroke="#205a7a"></path><path d="M804 0L870 -14L708 0Z" fill="#19435d" stroke="#19435d"></path><path d="M589 -7L870 -14L0 0Z" fill="#0c2435" stroke="#0c2435"></path><path d="M900 163L900 39L820 87Z" fill="#19435d" stroke="#19435d"></path><path d="M900 39L900 0L870 -14Z" fill="#0c2435" stroke="#0c2435"></path><path d="M463 601L900 600L817 600Z" fill="#112e42" stroke="#112e42"></path><path d="M817 600L900 600L833 456Z" fill="#277297" stroke="#277297"></path></g></svg>